<svg xmlns="http://www.w3.org/2000/svg" viewBox="0 0 25 25" width="25" height="25" shape-rendering="crispEdges"><rect width="100%" height="100%" fill="#FFFFFF"/><path d="M2 2h1v1h-1zM3 2h1v1h-1zM4 2h1v1h-1zM5 2h1v1h-1zM6 2h1v1h-1zM7 2h1v1h-1zM8 2h1v1h-1zM10 2h1v1h-1zM13 2h1v1h-1zM16 2h1v1h-1zM17 2h1v1h-1zM18 2h1v1h-1zM19 2h1v1h-1zM20 2h1v1h-1zM21 2h1v1h-1zM22 2h1v1h-1zM2 3h1v1h-1zM8 3h1v1h-1zM10 3h1v1h-1zM11 3h1v1h-1zM16 3h1v1h-1zM22 3h1v1h-1zM2 4h1v1h-1zM4 4h1v1h-1zM5 4h1v1h-1zM6 4h1v1h-1zM8 4h1v1h-1zM11 4h1v1h-1zM13 4h1v1h-1zM16 4h1v1h-1zM18 4h1v1h-1zM19 4h1v1h-1zM20 4h1v1h-1zM22 4h1v1h-1zM2 5h1v1h-1zM4 5h1v1h-1zM5 5h1v1h-1zM6 5h1v1h-1zM8 5h1v1h-1zM10 5h1v1h-1zM11 5h1v1h-1zM13 5h1v1h-1zM16 5h1v1h-1zM18 5h1v1h-1zM19 5h1v1h-1zM20 5h1v1h-1zM22 5h1v1h-1zM2 6h1v1h-1zM4 6h1v1h-1zM5 6h1v1h-1zM6 6h1v1h-1zM8 6h1v1h-1zM11 6h1v1h-1zM12 6h1v1h-1zM13 6h1v1h-1zM16 6h1v1h-1zM18 6h1v1h-1zM19 6h1v1h-1zM20 6h1v1h-1zM22 6h1v1h-1zM2 7h1v1h-1zM8 7h1v1h-1zM11 7h1v1h-1zM13 7h1v1h-1zM14 7h1v1h-1zM16 7h1v1h-1zM22 7h1v1h-1zM2 8h1v1h-1zM3 8h1v1h-1zM4 8h1v1h-1zM5 8h1v1h-1zM6 8h1v1h-1zM7 8h1v1h-1zM8 8h1v1h-1zM10 8h1v1h-1zM12 8h1v1h-1zM14 8h1v1h-1zM16 8h1v1h-1zM17 8h1v1h-1zM18 8h1v1h-1zM19 8h1v1h-1zM20 8h1v1h-1zM21 8h1v1h-1zM22 8h1v1h-1zM10 9h1v1h-1zM11 9h1v1h-1zM13 9h1v1h-1zM14 9h1v1h-1zM2 10h1v1h-1zM4 10h1v1h-1zM5 10h1v1h-1zM7 10h1v1h-1zM8 10h1v1h-1zM9 10h1v1h-1zM11 10h1v1h-1zM13 10h1v1h-1zM14 10h1v1h-1zM16 10h1v1h-1zM19 10h1v1h-1zM21 10h1v1h-1zM22 10h1v1h-1zM4 11h1v1h-1zM6 11h1v1h-1zM7 11h1v1h-1zM9 11h1v1h-1zM10 11h1v1h-1zM11 11h1v1h-1zM14 11h1v1h-1zM15 11h1v1h-1zM19 11h1v1h-1zM20 11h1v1h-1zM22 11h1v1h-1zM2 12h1v1h-1zM3 12h1v1h-1zM6 12h1v1h-1zM8 12h1v1h-1zM11 12h1v1h-1zM12 12h1v1h-1zM13 12h1v1h-1zM15 12h1v1h-1zM17 12h1v1h-1zM21 12h1v1h-1zM22 12h1v1h-1zM2 13h1v1h-1zM4 13h1v1h-1zM10 13h1v1h-1zM11 13h1v1h-1zM12 13h1v1h-1zM13 13h1v1h-1zM18 13h1v1h-1zM19 13h1v1h-1zM21 13h1v1h-1zM2 14h1v1h-1zM4 14h1v1h-1zM5 14h1v1h-1zM7 14h1v1h-1zM8 14h1v1h-1zM12 14h1v1h-1zM14 14h1v1h-1zM16 14h1v1h-1zM17 14h1v1h-1zM22 14h1v1h-1zM10 15h1v1h-1zM12 15h1v1h-1zM13 15h1v1h-1zM14 15h1v1h-1zM15 15h1v1h-1zM18 15h1v1h-1zM20 15h1v1h-1zM22 15h1v1h-1zM2 16h1v1h-1zM3 16h1v1h-1zM4 16h1v1h-1zM5 16h1v1h-1zM6 16h1v1h-1zM7 16h1v1h-1zM8 16h1v1h-1zM10 16h1v1h-1zM11 16h1v1h-1zM12 16h1v1h-1zM16 16h1v1h-1zM18 16h1v1h-1zM2 17h1v1h-1zM8 17h1v1h-1zM10 17h1v1h-1zM11 17h1v1h-1zM12 17h1v1h-1zM14 17h1v1h-1zM15 17h1v1h-1zM17 17h1v1h-1zM19 17h1v1h-1zM20 17h1v1h-1zM21 17h1v1h-1zM2 18h1v1h-1zM4 18h1v1h-1zM5 18h1v1h-1zM6 18h1v1h-1zM8 18h1v1h-1zM11 18h1v1h-1zM12 18h1v1h-1zM15 18h1v1h-1zM17 18h1v1h-1zM18 18h1v1h-1zM19 18h1v1h-1zM20 18h1v1h-1zM21 18h1v1h-1zM2 19h1v1h-1zM4 19h1v1h-1zM5 19h1v1h-1zM6 19h1v1h-1zM8 19h1v1h-1zM10 19h1v1h-1zM14 19h1v1h-1zM15 19h1v1h-1zM19 19h1v1h-1zM20 19h1v1h-1zM21 19h1v1h-1zM2 20h1v1h-1zM4 20h1v1h-1zM5 20h1v1h-1zM6 20h1v1h-1zM8 20h1v1h-1zM10 20h1v1h-1zM13 20h1v1h-1zM14 20h1v1h-1zM16 20h1v1h-1zM17 20h1v1h-1zM20 20h1v1h-1zM2 21h1v1h-1zM8 21h1v1h-1zM12 21h1v1h-1zM13 21h1v1h-1zM15 21h1v1h-1zM16 21h1v1h-1zM17 21h1v1h-1zM18 21h1v1h-1zM22 21h1v1h-1zM2 22h1v1h-1zM3 22h1v1h-1zM4 22h1v1h-1zM5 22h1v1h-1zM6 22h1v1h-1zM7 22h1v1h-1zM8 22h1v1h-1zM10 22h1v1h-1zM12 22h1v1h-1zM13 22h1v1h-1zM14 22h1v1h-1zM15 22h1v1h-1zM16 22h1v1h-1zM17 22h1v1h-1zM20 22h1v1h-1z" fill="#000000"/></svg>