<svg xmlns="http://www.w3.org/2000/svg" viewBox="0 0 29 29" width="29" height="29" shape-rendering="crispEdges"><rect width="100%" height="100%" fill="#FFFFFF"/><path d="M2 2h1v1h-1zM3 2h1v1h-1zM4 2h1v1h-1zM5 2h1v1h-1zM6 2h1v1h-1zM7 2h1v1h-1zM8 2h1v1h-1zM10 2h1v1h-1zM11 2h1v1h-1zM13 2h1v1h-1zM15 2h1v1h-1zM18 2h1v1h-1zM20 2h1v1h-1zM21 2h1v1h-1zM22 2h1v1h-1zM23 2h1v1h-1zM24 2h1v1h-1zM25 2h1v1h-1zM26 2h1v1h-1zM2 3h1v1h-1zM8 3h1v1h-1zM10 3h1v1h-1zM12 3h1v1h-1zM16 3h1v1h-1zM17 3h1v1h-1zM18 3h1v1h-1zM20 3h1v1h-1zM26 3h1v1h-1zM2 4h1v1h-1zM4 4h1v1h-1zM5 4h1v1h-1zM6 4h1v1h-1zM8 4h1v1h-1zM10 4h1v1h-1zM11 4h1v1h-1zM15 4h1v1h-1zM16 4h1v1h-1zM18 4h1v1h-1zM20 4h1v1h-1zM22 4h1v1h-1zM23 4h1v1h-1zM24 4h1v1h-1zM26 4h1v1h-1zM2 5h1v1h-1zM4 5h1v1h-1zM5 5h1v1h-1zM6 5h1v1h-1zM8 5h1v1h-1zM10 5h1v1h-1zM15 5h1v1h-1zM16 5h1v1h-1zM17 5h1v1h-1zM20 5h1v1h-1zM22 5h1v1h-1zM23 5h1v1h-1zM24 5h1v1h-1zM26 5h1v1h-1zM2 6h1v1h-1zM4 6h1v1h-1zM5 6h1v1h-1zM6 6h1v1h-1zM8 6h1v1h-1zM10 6h1v1h-1zM11 6h1v1h-1zM13 6h1v1h-1zM14 6h1v1h-1zM16 6h1v1h-1zM20 6h1v1h-1zM22 6h1v1h-1zM23 6h1v1h-1zM24 6h1v1h-1zM26 6h1v1h-1zM2 7h1v1h-1zM8 7h1v1h-1zM11 7h1v1h-1zM12 7h1v1h-1zM14 7h1v1h-1zM15 7h1v1h-1zM20 7h1v1h-1zM26 7h1v1h-1zM2 8h1v1h-1zM3 8h1v1h-1zM4 8h1v1h-1zM5 8h1v1h-1zM6 8h1v1h-1zM7 8h1v1h-1zM8 8h1v1h-1zM10 8h1v1h-1zM12 8h1v1h-1zM14 8h1v1h-1zM16 8h1v1h-1zM18 8h1v1h-1zM20 8h1v1h-1zM21 8h1v1h-1zM22 8h1v1h-1zM23 8h1v1h-1zM24 8h1v1h-1zM25 8h1v1h-1zM26 8h1v1h-1zM10 9h1v1h-1zM15 9h1v1h-1zM16 9h1v1h-1zM18 9h1v1h-1zM3 10h1v1h-1zM4 10h1v1h-1zM6 10h1v1h-1zM8 10h1v1h-1zM9 10h1v1h-1zM12 10h1v1h-1zM14 10h1v1h-1zM16 10h1v1h-1zM17 10h1v1h-1zM18 10h1v1h-1zM20 10h1v1h-1zM22 10h1v1h-1zM23 10h1v1h-1zM24 10h1v1h-1zM25 10h1v1h-1zM26 10h1v1h-1zM3 11h1v1h-1zM4 11h1v1h-1zM7 11h1v1h-1zM10 11h1v1h-1zM11 11h1v1h-1zM12 11h1v1h-1zM16 11h1v1h-1zM17 11h1v1h-1zM19 11h1v1h-1zM20 11h1v1h-1zM22 11h1v1h-1zM23 11h1v1h-1zM3 12h1v1h-1zM5 12h1v1h-1zM6 12h1v1h-1zM7 12h1v1h-1zM8 12h1v1h-1zM13 12h1v1h-1zM15 12h1v1h-1zM20 12h1v1h-1zM21 12h1v1h-1zM23 12h1v1h-1zM7 13h1v1h-1zM9 13h1v1h-1zM10 13h1v1h-1zM13 13h1v1h-1zM14 13h1v1h-1zM18 13h1v1h-1zM20 13h1v1h-1zM21 13h1v1h-1zM22 13h1v1h-1zM24 13h1v1h-1zM2 14h1v1h-1zM3 14h1v1h-1zM4 14h1v1h-1zM8 14h1v1h-1zM10 14h1v1h-1zM11 14h1v1h-1zM12 14h1v1h-1zM17 14h1v1h-1zM18 14h1v1h-1zM26 14h1v1h-1zM3 15h1v1h-1zM6 15h1v1h-1zM7 15h1v1h-1zM10 15h1v1h-1zM12 15h1v1h-1zM14 15h1v1h-1zM15 15h1v1h-1zM19 15h1v1h-1zM21 15h1v1h-1zM22 15h1v1h-1zM23 15h1v1h-1zM25 15h1v1h-1zM2 16h1v1h-1zM4 16h1v1h-1zM6 16h1v1h-1zM8 16h1v1h-1zM9 16h1v1h-1zM11 16h1v1h-1zM13 16h1v1h-1zM14 16h1v1h-1zM16 16h1v1h-1zM17 16h1v1h-1zM20 16h1v1h-1zM21 16h1v1h-1zM22 16h1v1h-1zM23 16h1v1h-1zM3 17h1v1h-1zM5 17h1v1h-1zM6 17h1v1h-1zM7 17h1v1h-1zM11 17h1v1h-1zM12 17h1v1h-1zM14 17h1v1h-1zM15 17h1v1h-1zM17 17h1v1h-1zM21 17h1v1h-1zM23 17h1v1h-1zM24 17h1v1h-1zM26 17h1v1h-1zM2 18h1v1h-1zM5 18h1v1h-1zM6 18h1v1h-1zM8 18h1v1h-1zM11 18h1v1h-1zM12 18h1v1h-1zM13 18h1v1h-1zM15 18h1v1h-1zM16 18h1v1h-1zM18 18h1v1h-1zM19 18h1v1h-1zM20 18h1v1h-1zM21 18h1v1h-1zM22 18h1v1h-1zM24 18h1v1h-1zM26 18h1v1h-1zM10 19h1v1h-1zM14 19h1v1h-1zM15 19h1v1h-1zM17 19h1v1h-1zM18 19h1v1h-1zM22 19h1v1h-1zM23 19h1v1h-1zM25 19h1v1h-1zM26 19h1v1h-1zM2 20h1v1h-1zM3 20h1v1h-1zM4 20h1v1h-1zM5 20h1v1h-1zM6 20h1v1h-1zM7 20h1v1h-1zM8 20h1v1h-1zM10 20h1v1h-1zM11 20h1v1h-1zM12 20h1v1h-1zM15 20h1v1h-1zM16 20h1v1h-1zM18 20h1v1h-1zM20 20h1v1h-1zM22 20h1v1h-1zM25 20h1v1h-1zM2 21h1v1h-1zM8 21h1v1h-1zM11 21h1v1h-1zM13 21h1v1h-1zM14 21h1v1h-1zM16 21h1v1h-1zM17 21h1v1h-1zM18 21h1v1h-1zM22 21h1v1h-1zM23 21h1v1h-1zM24 21h1v1h-1zM26 21h1v1h-1zM2 22h1v1h-1zM4 22h1v1h-1zM5 22h1v1h-1zM6 22h1v1h-1zM8 22h1v1h-1zM10 22h1v1h-1zM12 22h1v1h-1zM13 22h1v1h-1zM14 22h1v1h-1zM17 22h1v1h-1zM18 22h1v1h-1zM19 22h1v1h-1zM20 22h1v1h-1zM21 22h1v1h-1zM22 22h1v1h-1zM23 22h1v1h-1zM24 22h1v1h-1zM25 22h1v1h-1zM2 23h1v1h-1zM4 23h1v1h-1zM5 23h1v1h-1zM6 23h1v1h-1zM8 23h1v1h-1zM13 23h1v1h-1zM14 23h1v1h-1zM15 23h1v1h-1zM18 23h1v1h-1zM19 23h1v1h-1zM20 23h1v1h-1zM21 23h1v1h-1zM23 23h1v1h-1zM25 23h1v1h-1zM2 24h1v1h-1zM4 24h1v1h-1zM5 24h1v1h-1zM6 24h1v1h-1zM8 24h1v1h-1zM10 24h1v1h-1zM11 24h1v1h-1zM12 24h1v1h-1zM13 24h1v1h-1zM15 24h1v1h-1zM16 24h1v1h-1zM18 24h1v1h-1zM23 24h1v1h-1zM26 24h1v1h-1zM2 25h1v1h-1zM8 25h1v1h-1zM10 25h1v1h-1zM13 25h1v1h-1zM17 25h1v1h-1zM18 25h1v1h-1zM19 25h1v1h-1zM22 25h1v1h-1zM24 25h1v1h-1zM25 25h1v1h-1zM2 26h1v1h-1zM3 26h1v1h-1zM4 26h1v1h-1zM5 26h1v1h-1zM6 26h1v1h-1zM7 26h1v1h-1zM8 26h1v1h-1zM11 26h1v1h-1zM12 26h1v1h-1zM14 26h1v1h-1zM16 26h1v1h-1zM17 26h1v1h-1zM19 26h1v1h-1zM20 26h1v1h-1zM22 26h1v1h-1zM25 26h1v1h-1zM26 26h1v1h-1z" fill="#000000"/></svg>