<svg xmlns="http://www.w3.org/2000/svg" viewBox="0 0 37 37" width="37" height="37" shape-rendering="crispEdges"><rect width="100%" height="100%" fill="#FFFFFF"/><path d="M2 2h1v1h-1zM3 2h1v1h-1zM4 2h1v1h-1zM5 2h1v1h-1zM6 2h1v1h-1zM7 2h1v1h-1zM8 2h1v1h-1zM10 2h1v1h-1zM11 2h1v1h-1zM12 2h1v1h-1zM13 2h1v1h-1zM16 2h1v1h-1zM17 2h1v1h-1zM18 2h1v1h-1zM20 2h1v1h-1zM21 2h1v1h-1zM24 2h1v1h-1zM25 2h1v1h-1zM28 2h1v1h-1zM29 2h1v1h-1zM30 2h1v1h-1zM31 2h1v1h-1zM32 2h1v1h-1zM33 2h1v1h-1zM34 2h1v1h-1zM2 3h1v1h-1zM8 3h1v1h-1zM10 3h1v1h-1zM11 3h1v1h-1zM13 3h1v1h-1zM15 3h1v1h-1zM16 3h1v1h-1zM17 3h1v1h-1zM18 3h1v1h-1zM19 3h1v1h-1zM21 3h1v1h-1zM22 3h1v1h-1zM24 3h1v1h-1zM25 3h1v1h-1zM26 3h1v1h-1zM28 3h1v1h-1zM34 3h1v1h-1zM2 4h1v1h-1zM4 4h1v1h-1zM5 4h1v1h-1zM6 4h1v1h-1zM8 4h1v1h-1zM10 4h1v1h-1zM11 4h1v1h-1zM14 4h1v1h-1zM15 4h1v1h-1zM21 4h1v1h-1zM22 4h1v1h-1zM26 4h1v1h-1zM28 4h1v1h-1zM30 4h1v1h-1zM31 4h1v1h-1zM32 4h1v1h-1zM34 4h1v1h-1zM2 5h1v1h-1zM4 5h1v1h-1zM5 5h1v1h-1zM6 5h1v1h-1zM8 5h1v1h-1zM10 5h1v1h-1zM11 5h1v1h-1zM13 5h1v1h-1zM14 5h1v1h-1zM15 5h1v1h-1zM16 5h1v1h-1zM17 5h1v1h-1zM19 5h1v1h-1zM21 5h1v1h-1zM26 5h1v1h-1zM28 5h1v1h-1zM30 5h1v1h-1zM31 5h1v1h-1zM32 5h1v1h-1zM34 5h1v1h-1zM2 6h1v1h-1zM4 6h1v1h-1zM5 6h1v1h-1zM6 6h1v1h-1zM8 6h1v1h-1zM10 6h1v1h-1zM11 6h1v1h-1zM12 6h1v1h-1zM15 6h1v1h-1zM17 6h1v1h-1zM18 6h1v1h-1zM19 6h1v1h-1zM23 6h1v1h-1zM25 6h1v1h-1zM28 6h1v1h-1zM30 6h1v1h-1zM31 6h1v1h-1zM32 6h1v1h-1zM34 6h1v1h-1zM2 7h1v1h-1zM8 7h1v1h-1zM13 7h1v1h-1zM14 7h1v1h-1zM15 7h1v1h-1zM17 7h1v1h-1zM20 7h1v1h-1zM24 7h1v1h-1zM25 7h1v1h-1zM28 7h1v1h-1zM34 7h1v1h-1zM2 8h1v1h-1zM3 8h1v1h-1zM4 8h1v1h-1zM5 8h1v1h-1zM6 8h1v1h-1zM7 8h1v1h-1zM8 8h1v1h-1zM10 8h1v1h-1zM12 8h1v1h-1zM14 8h1v1h-1zM16 8h1v1h-1zM18 8h1v1h-1zM20 8h1v1h-1zM22 8h1v1h-1zM24 8h1v1h-1zM26 8h1v1h-1zM28 8h1v1h-1zM29 8h1v1h-1zM30 8h1v1h-1zM31 8h1v1h-1zM32 8h1v1h-1zM33 8h1v1h-1zM34 8h1v1h-1zM10 9h1v1h-1zM12 9h1v1h-1zM13 9h1v1h-1zM14 9h1v1h-1zM19 9h1v1h-1zM20 9h1v1h-1zM22 9h1v1h-1zM23 9h1v1h-1zM24 9h1v1h-1zM25 9h1v1h-1zM26 9h1v1h-1zM3 10h1v1h-1zM4 10h1v1h-1zM6 10h1v1h-1zM8 10h1v1h-1zM9 10h1v1h-1zM15 10h1v1h-1zM18 10h1v1h-1zM19 10h1v1h-1zM21 10h1v1h-1zM22 10h1v1h-1zM23 10h1v1h-1zM28 10h1v1h-1zM30 10h1v1h-1zM31 10h1v1h-1zM32 10h1v1h-1zM33 10h1v1h-1zM34 10h1v1h-1zM2 11h1v1h-1zM6 11h1v1h-1zM7 11h1v1h-1zM9 11h1v1h-1zM10 11h1v1h-1zM11 11h1v1h-1zM13 11h1v1h-1zM14 11h1v1h-1zM15 11h1v1h-1zM16 11h1v1h-1zM22 11h1v1h-1zM24 11h1v1h-1zM26 11h1v1h-1zM27 11h1v1h-1zM28 11h1v1h-1zM29 11h1v1h-1zM33 11h1v1h-1zM34 11h1v1h-1zM2 12h1v1h-1zM3 12h1v1h-1zM8 12h1v1h-1zM9 12h1v1h-1zM10 12h1v1h-1zM14 12h1v1h-1zM17 12h1v1h-1zM18 12h1v1h-1zM19 12h1v1h-1zM22 12h1v1h-1zM24 12h1v1h-1zM26 12h1v1h-1zM27 12h1v1h-1zM28 12h1v1h-1zM29 12h1v1h-1zM32 12h1v1h-1zM33 12h1v1h-1zM34 12h1v1h-1zM2 13h1v1h-1zM10 13h1v1h-1zM11 13h1v1h-1zM12 13h1v1h-1zM22 13h1v1h-1zM23 13h1v1h-1zM24 13h1v1h-1zM26 13h1v1h-1zM27 13h1v1h-1zM28 13h1v1h-1zM30 13h1v1h-1zM34 13h1v1h-1zM3 14h1v1h-1zM6 14h1v1h-1zM8 14h1v1h-1zM10 14h1v1h-1zM13 14h1v1h-1zM14 14h1v1h-1zM16 14h1v1h-1zM17 14h1v1h-1zM21 14h1v1h-1zM22 14h1v1h-1zM25 14h1v1h-1zM28 14h1v1h-1zM29 14h1v1h-1zM31 14h1v1h-1zM33 14h1v1h-1zM34 14h1v1h-1zM4 15h1v1h-1zM6 15h1v1h-1zM9 15h1v1h-1zM10 15h1v1h-1zM11 15h1v1h-1zM15 15h1v1h-1zM16 15h1v1h-1zM19 15h1v1h-1zM21 15h1v1h-1zM23 15h1v1h-1zM24 15h1v1h-1zM28 15h1v1h-1zM31 15h1v1h-1zM34 15h1v1h-1zM2 16h1v1h-1zM7 16h1v1h-1zM8 16h1v1h-1zM9 16h1v1h-1zM13 16h1v1h-1zM15 16h1v1h-1zM16 16h1v1h-1zM18 16h1v1h-1zM27 16h1v1h-1zM29 16h1v1h-1zM31 16h1v1h-1zM32 16h1v1h-1zM33 16h1v1h-1zM34 16h1v1h-1zM2 17h1v1h-1zM3 17h1v1h-1zM6 17h1v1h-1zM7 17h1v1h-1zM9 17h1v1h-1zM10 17h1v1h-1zM13 17h1v1h-1zM14 17h1v1h-1zM15 17h1v1h-1zM19 17h1v1h-1zM21 17h1v1h-1zM23 17h1v1h-1zM24 17h1v1h-1zM26 17h1v1h-1zM28 17h1v1h-1zM30 17h1v1h-1zM33 17h1v1h-1zM2 18h1v1h-1zM3 18h1v1h-1zM6 18h1v1h-1zM7 18h1v1h-1zM8 18h1v1h-1zM11 18h1v1h-1zM12 18h1v1h-1zM13 18h1v1h-1zM14 18h1v1h-1zM15 18h1v1h-1zM16 18h1v1h-1zM17 18h1v1h-1zM18 18h1v1h-1zM19 18h1v1h-1zM22 18h1v1h-1zM23 18h1v1h-1zM26 18h1v1h-1zM27 18h1v1h-1zM28 18h1v1h-1zM31 18h1v1h-1zM5 19h1v1h-1zM11 19h1v1h-1zM13 19h1v1h-1zM18 19h1v1h-1zM23 19h1v1h-1zM24 19h1v1h-1zM28 19h1v1h-1zM29 19h1v1h-1zM34 19h1v1h-1zM7 20h1v1h-1zM8 20h1v1h-1zM9 20h1v1h-1zM10 20h1v1h-1zM12 20h1v1h-1zM14 20h1v1h-1zM16 20h1v1h-1zM19 20h1v1h-1zM20 20h1v1h-1zM23 20h1v1h-1zM27 20h1v1h-1zM32 20h1v1h-1zM33 20h1v1h-1zM34 20h1v1h-1zM3 21h1v1h-1zM4 21h1v1h-1zM6 21h1v1h-1zM7 21h1v1h-1zM9 21h1v1h-1zM10 21h1v1h-1zM12 21h1v1h-1zM13 21h1v1h-1zM14 21h1v1h-1zM15 21h1v1h-1zM16 21h1v1h-1zM20 21h1v1h-1zM21 21h1v1h-1zM22 21h1v1h-1zM23 21h1v1h-1zM24 21h1v1h-1zM26 21h1v1h-1zM29 21h1v1h-1zM30 21h1v1h-1zM34 21h1v1h-1zM2 22h1v1h-1zM5 22h1v1h-1zM8 22h1v1h-1zM10 22h1v1h-1zM11 22h1v1h-1zM12 22h1v1h-1zM13 22h1v1h-1zM14 22h1v1h-1zM16 22h1v1h-1zM17 22h1v1h-1zM19 22h1v1h-1zM20 22h1v1h-1zM23 22h1v1h-1zM27 22h1v1h-1zM28 22h1v1h-1zM29 22h1v1h-1zM31 22h1v1h-1zM33 22h1v1h-1zM3 23h1v1h-1zM4 23h1v1h-1zM7 23h1v1h-1zM10 23h1v1h-1zM12 23h1v1h-1zM16 23h1v1h-1zM18 23h1v1h-1zM19 23h1v1h-1zM21 23h1v1h-1zM22 23h1v1h-1zM23 23h1v1h-1zM26 23h1v1h-1zM27 23h1v1h-1zM28 23h1v1h-1zM29 23h1v1h-1zM33 23h1v1h-1zM34 23h1v1h-1zM2 24h1v1h-1zM4 24h1v1h-1zM6 24h1v1h-1zM7 24h1v1h-1zM8 24h1v1h-1zM10 24h1v1h-1zM11 24h1v1h-1zM15 24h1v1h-1zM16 24h1v1h-1zM17 24h1v1h-1zM19 24h1v1h-1zM20 24h1v1h-1zM27 24h1v1h-1zM28 24h1v1h-1zM30 24h1v1h-1zM32 24h1v1h-1zM33 24h1v1h-1zM34 24h1v1h-1zM3 25h1v1h-1zM4 25h1v1h-1zM5 25h1v1h-1zM7 25h1v1h-1zM13 25h1v1h-1zM14 25h1v1h-1zM15 25h1v1h-1zM18 25h1v1h-1zM20 25h1v1h-1zM23 25h1v1h-1zM25 25h1v1h-1zM28 25h1v1h-1zM29 25h1v1h-1zM30 25h1v1h-1zM34 25h1v1h-1zM2 26h1v1h-1zM4 26h1v1h-1zM6 26h1v1h-1zM7 26h1v1h-1zM8 26h1v1h-1zM10 26h1v1h-1zM11 26h1v1h-1zM12 26h1v1h-1zM13 26h1v1h-1zM14 26h1v1h-1zM16 26h1v1h-1zM17 26h1v1h-1zM20 26h1v1h-1zM22 26h1v1h-1zM23 26h1v1h-1zM26 26h1v1h-1zM27 26h1v1h-1zM28 26h1v1h-1zM29 26h1v1h-1zM30 26h1v1h-1zM10 27h1v1h-1zM13 27h1v1h-1zM16 27h1v1h-1zM20 27h1v1h-1zM22 27h1v1h-1zM23 27h1v1h-1zM24 27h1v1h-1zM26 27h1v1h-1zM30 27h1v1h-1zM31 27h1v1h-1zM33 27h1v1h-1zM34 27h1v1h-1zM2 28h1v1h-1zM3 28h1v1h-1zM4 28h1v1h-1zM5 28h1v1h-1zM6 28h1v1h-1zM7 28h1v1h-1zM8 28h1v1h-1zM10 28h1v1h-1zM12 28h1v1h-1zM19 28h1v1h-1zM22 28h1v1h-1zM23 28h1v1h-1zM25 28h1v1h-1zM26 28h1v1h-1zM28 28h1v1h-1zM30 28h1v1h-1zM32 28h1v1h-1zM34 28h1v1h-1zM2 29h1v1h-1zM8 29h1v1h-1zM11 29h1v1h-1zM12 29h1v1h-1zM13 29h1v1h-1zM15 29h1v1h-1zM16 29h1v1h-1zM17 29h1v1h-1zM18 29h1v1h-1zM23 29h1v1h-1zM24 29h1v1h-1zM26 29h1v1h-1zM30 29h1v1h-1zM2 30h1v1h-1zM4 30h1v1h-1zM5 30h1v1h-1zM6 30h1v1h-1zM8 30h1v1h-1zM10 30h1v1h-1zM11 30h1v1h-1zM15 30h1v1h-1zM20 30h1v1h-1zM22 30h1v1h-1zM26 30h1v1h-1zM27 30h1v1h-1zM28 30h1v1h-1zM29 30h1v1h-1zM30 30h1v1h-1zM31 30h1v1h-1zM33 30h1v1h-1zM2 31h1v1h-1zM4 31h1v1h-1zM5 31h1v1h-1zM6 31h1v1h-1zM8 31h1v1h-1zM12 31h1v1h-1zM14 31h1v1h-1zM15 31h1v1h-1zM18 31h1v1h-1zM19 31h1v1h-1zM20 31h1v1h-1zM22 31h1v1h-1zM23 31h1v1h-1zM24 31h1v1h-1zM26 31h1v1h-1zM30 31h1v1h-1zM31 31h1v1h-1zM33 31h1v1h-1zM34 31h1v1h-1zM2 32h1v1h-1zM4 32h1v1h-1zM5 32h1v1h-1zM6 32h1v1h-1zM8 32h1v1h-1zM10 32h1v1h-1zM12 32h1v1h-1zM13 32h1v1h-1zM15 32h1v1h-1zM17 32h1v1h-1zM18 32h1v1h-1zM22 32h1v1h-1zM25 32h1v1h-1zM26 32h1v1h-1zM27 32h1v1h-1zM30 32h1v1h-1zM31 32h1v1h-1zM34 32h1v1h-1zM2 33h1v1h-1zM8 33h1v1h-1zM10 33h1v1h-1zM12 33h1v1h-1zM14 33h1v1h-1zM16 33h1v1h-1zM18 33h1v1h-1zM19 33h1v1h-1zM21 33h1v1h-1zM23 33h1v1h-1zM24 33h1v1h-1zM30 33h1v1h-1zM33 33h1v1h-1zM2 34h1v1h-1zM3 34h1v1h-1zM4 34h1v1h-1zM5 34h1v1h-1zM6 34h1v1h-1zM7 34h1v1h-1zM8 34h1v1h-1zM12 34h1v1h-1zM15 34h1v1h-1zM18 34h1v1h-1zM20 34h1v1h-1zM21 34h1v1h-1zM22 34h1v1h-1zM23 34h1v1h-1zM25 34h1v1h-1zM26 34h1v1h-1zM28 34h1v1h-1zM30 34h1v1h-1zM33 34h1v1h-1zM34 34h1v1h-1z" fill="#000000"/></svg>